#N canvas 104 184 905 672 10;
#X obj 91 260 *~;
#X obj 182 260 *~;
#X obj 277 260 *~;
#X obj 363 254 *~;
#X obj 247 379 dac~;
#X obj 95 131 r p1;
#X obj 180 131 r p2;
#X obj 280 135 r p3;
#X obj 374 136 r p4;
#X obj 93 213 osc~ 220;
#X obj 180 223 osc~ 330;
#X obj 274 218 osc~ 440;
#X obj 366 222 osc~ 550;
#X obj 105 172 r v1;
#X obj 210 174 r v2;
#X obj 297 177 r v3;
#X obj 404 175 r v4;
#X obj 15 131 r onOff;
#X obj 214 11 loadbang;
#X obj 214 40 0.25;
#X obj 213 68 s onOff;
#X obj 437 19 r metro;
#X obj 439 52 metro 500;
#X obj 439 82 random 600;
#X obj 437 113 + 200;
#X connect 0 0 4 1;
#X connect 0 0 4 0;
#X connect 1 0 4 0;
#X connect 1 0 4 1;
#X connect 2 0 4 1;
#X connect 2 0 4 0;
#X connect 3 0 4 0;
#X connect 3 0 4 1;
#X connect 5 0 9 0;
#X connect 6 0 10 0;
#X connect 7 0 11 0;
#X connect 8 0 12 0;
#X connect 9 0 0 0;
#X connect 10 0 1 0;
#X connect 11 0 2 0;
#X connect 12 0 3 0;
#X connect 13 0 0 1;
#X connect 14 0 1 1;
#X connect 15 0 2 1;
#X connect 16 0 3 1;
#X connect 17 0 0 1;
#X connect 17 0 1 1;
#X connect 17 0 2 1;
#X connect 17 0 3 1;
#X connect 18 0 19 0;
#X connect 19 0 20 0;
#X connect 21 0 22 0;
#X connect 22 0 23 0;
#X connect 23 0 24 0;
#X connect 24 0 9 0;
